<?xml version="1.0" encoding="UTF-8"?>
<!DOCTYPE svg PUBLIC "-//W3C//DTD SVG 1.1//EN" "http://www.w3.org/Graphics/SVG/1.1/DTD/svg11.dtd">
<!-- Creator: CorelDRAW X8 -->
<svg xmlns="http://www.w3.org/2000/svg" xml:space="preserve" width="215.9mm" height="279.4mm" version="1.1" style="shape-rendering:geometricPrecision; text-rendering:geometricPrecision; image-rendering:optimizeQuality; fill-rule:evenodd; clip-rule:evenodd"
viewBox="0 0 21590 27940"
 xmlns:xlink="http://www.w3.org/1999/xlink">
 <defs>
  <style type="text/css">
   <![CDATA[
    .str1 {stroke:#FEFEFE;stroke-width:25}
    .str2 {stroke:#4D9BCC;stroke-width:20}
    .str3 {stroke:#FF9B39;stroke-width:20}
    .str0 {stroke:black;stroke-width:7.62}
    .fil2 {fill:black}
    .fil3 {fill:#4D9BCC}
    .fil1 {fill:#EEEEEE}
    .fil0 {fill:#FEFEFE}
    .fil4 {fill:#FF9B39}
   ]]>
  </style>
 </defs>
 <g id="Capa_x0020_1">
  <metadata id="CorelCorpID_0Corel-Layer"/>
  <path class="fil0" d="M11299 4536c68,128 331,551 359,644l-8102 0c33,-166 237,-543 239,-631 -51,-41 -254,-20 -333,-19l-1 338 35 0 -372 0 0 340 337 0 0 337 -337 0 0 1534c19,-54 36,-289 47,-368 61,-455 144,-663 223,-1050l5534 -5c-24,76 -89,148 -96,207 3,2 8,2 10,8l18 15c2,2 7,6 9,8 2,1 6,5 9,7l0 322 338 0 1 -338 338 -1 1 -337 336 0 1 337 339 0 1 -337 336 0 1 337 338 0 2 -337 336 0 1 337 338 0 2 -337 336 0 1 337 337 1 1 338 338 9 188 0c-37,-116 -219,-401 -288,-518 -99,-168 -200,-341 -297,-516 -190,-346 -404,-685 -593,-1028 -33,-2 -29,-10 -17,21l9 356c-98,0 -211,13 -303,-11z"/>
  <path class="fil0" d="M4825 12587l-3 75 -6 330 341 9 91 4 1358 -2370c235,-394 457,-797 683,-1194 87,-153 642,-1144 692,-1182 93,117 224,386 302,521 104,183 206,357 310,537l629 1071 3 -105 -8 -336 338 -1 9 -338 0 -340 0 -337 0 -331 -330 9 -9 -357 -9 -337 -338 0 0 337 -338 0 -1 -337 -337 -1 0 -336 337 -2 1 -337 338 -1 0 -339 -338 -1 -1 -336 339 -1 0 -338 -261 2c-53,60 -861,1493 -925,1604 -172,299 -2703,4680 -2773,4843 -52,-25 -66,-46 -94,-85z"/>
  <path class="fil0" d="M15990 2902c-57,50 -293,482 -328,543l-2232 3865 -440 -732c-50,-17 -27,-14 -52,0l0 320 -336 9 -332 0 0 332 0 336 0 341 0 336 0 341 -9 336 -337 1 0 339 337 1 9 336 0 349 179 7 8 -32c466,-769 883,-1577 1351,-2347 233,-382 449,-784 673,-1173 91,-157 659,-1105 669,-1185 -46,-31 -120,-18 -179,-19l0 -337c80,1 255,-12 323,15 3,2 7,5 10,6 64,28 -40,31 36,13l1185 -2047c32,21 37,26 70,66l73 72 3 -148 -339 0 8 347 -338 0c0,-95 11,-201 -12,-291z"/>
  <path class="fil0" d="M17914 9934c-64,45 -140,28 -236,28l-1 320 -337 10c-94,19 -246,19 -340,-1l-337 1c-94,19 -246,19 -340,-1l-337 1c-94,19 -246,19 -340,-1l-337 1c-94,19 -246,19 -340,-1l-336 1c-95,19 -247,19 -341,-1l-336 1c-95,19 -247,19 -341,-1l-336 1c-95,19 -247,19 -341,-1l-336 1c-95,19 -247,19 -341,-1l-336 1c-95,19 -247,19 -341,-1l-336 1c-94,19 -247,19 -341,-1l-336 1c-94,19 -247,19 -340,-1l-337 1 -331 0 0 339 296 2 -116 -234 8131 -4c-23,101 -70,170 -111,263 -269,602 -420,894 -793,1439 -51,74 -122,148 -151,229l183 -2 337 -9 1 -338 338 -1 1 -337 336 0 1 337 339 1 0 -2015 -321 0 -6 -77c-38,17 -63,31 -114,49z"/>
  <path class="fil0" d="M3124 10624l337 0 -16 336 -321 0 0 341 337 -1 1 338 338 1 1 337 337 9 225 -1c-46,-110 -164,-272 -232,-389 -483,-832 -795,-1760 -943,-2714 -18,-117 -37,-430 -64,-517l0 2260z"/>
  <polygon class="fil1" points="3124,5545 3461,5545 3461,5208 3124,5208 "/>
  <path class="fil2 str0" d="M12922 10953l1940 -927c-101,-290 -2709,-5543 -2812,-5679l-2360 2c280,638 3166,6338 3232,6604z"/>
  <path class="fil2 str0" d="M7123 9678l1961 864 2054 -4660c91,-203 50,-223 -44,-401 -161,-306 -432,-912 -579,-1130l-1033 -3c-130,203 -1011,2251 -1184,2645 -183,417 -1117,2446 -1175,2685z"/>
  <path class="fil2 str1" d="M9652 12026c-42,-242 -298,-251 -627,-587 -263,-269 -295,-372 -488,-764 -1341,-87 -1026,-364 -1421,-478 -194,-57 -349,282 -434,453 -200,403 -43,446 255,601 428,222 866,416 1326,609 224,94 452,185 690,260 292,93 581,221 699,-94z"/>
  <path class="fil3 str2" d="M4875 10969c-1895,-4427 -2843,-6641 -2843,-6641 1912,17 2868,25 2868,25 1437,3333 2156,4999 2156,4999 -1454,1078 -2181,1617 -2181,1617z"/>
  <path class="fil4 str3" d="M14432 12047c1732,-5129 2598,-7694 2598,-7694 1928,-17 2892,-25 2892,-25 -2222,5146 -3333,7719 -3333,7719 -1438,0 -2157,0 -2157,0z"/>
  <path class="fil2 str1" d="M13583 12063c440,49 2699,-1052 2832,-1251 215,-319 -98,-395 -394,-317 -563,149 -847,73 -1349,-87 -286,232 -467,570 -1039,660 -327,52 -420,60 -326,409 86,321 126,344 276,586z"/>
 </g>
</svg>
